<svg width="128" height="20" viewBox="0 0 128 20" fill="none" xmlns="http://www.w3.org/2000/svg">
<path d="M11.1512 7.57711C13.1813 7.57711 15.097 8.69223 16.0978 10.465C16.6125 11.3228 16.8698 12.2949 16.8698 13.2957C16.8698 14.2964 16.6125 15.2686 16.0978 16.155C15.097 17.9277 13.1813 19.0143 11.1512 19.0143H5.46124C2.94507 19.0143 0.829193 17.3273 0.171557 15.0113C0.16187 14.9725 0.152593 14.9336 0.143726 14.8944C-0.0211508 14.1662 0.605238 13.553 1.35184 13.553H2.56538C3.31198 13.553 3.89169 14.2633 4.46461 14.7421C4.55032 14.8137 4.64406 14.8757 4.74433 14.9267C4.87386 14.9925 5.02064 15.0113 5.16594 15.0113H11.1512C12.0948 15.0113 12.8382 14.2392 12.8382 13.2957C12.8382 12.3521 12.0948 11.5801 11.1512 11.5801H5.71857C4.11737 11.5801 2.60195 10.8939 1.51542 9.75017C1.22949 9.43565 0.972158 9.09253 0.743415 8.69223C0.257336 7.83444 0 6.86229 0 5.86154C0 4.86079 0.257336 3.88863 0.743415 3.03084C1.74417 1.22949 3.65989 0.142964 5.71857 0.142964H11.4943C14.0105 0.142964 16.1264 1.82994 16.7554 4.14596C16.7679 4.18595 16.7798 4.22616 16.791 4.26659C16.9904 4.98606 16.3503 5.6042 15.6037 5.6042H14.3902C13.6436 5.6042 13.0635 4.89176 12.4857 4.41899C12.3917 4.3421 12.2878 4.27612 12.1756 4.22286C12.0499 4.16322 11.9096 4.14596 11.7705 4.14596H5.71857C4.77501 4.14596 4.003 4.91797 4.003 5.86154C4.003 6.8051 4.77501 7.57711 5.71857 7.57711H11.1512Z" fill="#2F5BB3"/>
<path d="M32.6716 11.9232C32.7937 11.6616 33.0563 11.4943 33.345 11.4943H36.0259C36.5458 11.4943 36.9163 11.9991 36.7604 12.4951C36.1599 14.3822 34.9876 15.9834 33.3864 17.1843C31.728 18.3852 29.7837 19.0143 27.7536 19.0143C25.4662 19.0143 23.2645 18.2137 21.5204 16.6982C19.8334 15.2114 18.6897 13.1813 18.3752 10.9511C18.318 10.4936 18.2894 10.0075 18.2894 9.55002C18.2894 9.09253 18.318 8.66364 18.3752 8.20615C18.6897 5.97591 19.8048 3.91722 21.5204 2.43039C23.236 0.914972 25.4662 0.0857775 27.7536 0.0857775C29.8409 0.0857775 31.8424 0.743413 33.5008 2.0015C35.102 3.23099 36.3029 4.97516 36.8462 6.91947C36.9885 7.38919 36.637 7.86304 36.1461 7.86304H33.4855C33.1821 7.86304 32.9076 7.68346 32.786 7.40555C31.9282 5.40405 29.9553 4.08878 27.7536 4.08878C25.1517 4.08878 22.8928 5.91872 22.4068 8.46349C22.321 8.8352 22.2924 9.17831 22.2924 9.55002C22.2924 9.92172 22.321 10.322 22.4068 10.6651C22.9214 13.1813 25.1803 15.0113 27.7536 15.0113C29.8409 15.0113 31.7566 13.8104 32.6716 11.9232Z" fill="#2F5BB3"/>
<path d="M36.8441 17.8991L41.8689 8.84533C42.3834 7.91834 43.716 7.91733 44.2319 8.84354L45.2002 10.5821C45.4271 10.9895 45.428 11.485 45.2026 11.8933L41.4762 18.6425C41.3529 18.8715 41.1139 19.0143 40.8539 19.0143H37.5102C36.9378 19.0143 36.5728 18.4031 36.8441 17.8991ZM57.4882 17.8991C57.7596 18.4031 57.3945 19.0143 56.8221 19.0143H53.4785C53.2184 19.0143 52.9794 18.8715 52.8561 18.6425L47.2234 8.49208L47.1662 8.37771L44.8544 4.20081C44.727 3.9706 44.7254 3.6914 44.8501 3.45974L46.4799 0.486079C46.6026 0.240748 46.8534 0.0857775 47.1276 0.0857775H47.2167C47.4809 0.0857775 47.7197 0.243233 47.8238 0.486079L49.4822 3.45974L57.4882 17.8991Z" fill="#2F5BB3"/>
<path d="M61.7487 19.0143C61.0021 19.0143 60.3969 18.409 60.3969 17.6624V11.8987C60.3969 10.6943 61.853 10.0912 62.7046 10.9428L64.0039 12.2421C64.2574 12.4956 64.3999 12.8395 64.3999 13.198V17.6624C64.3999 18.409 63.7946 19.0143 63.048 19.0143H61.7487ZM71.691 1.46621C71.691 0.719611 72.2963 0.114372 73.0429 0.114372H74.3422C75.0888 0.114372 75.694 0.71961 75.694 1.46621V18.3268C75.694 18.7065 75.3863 19.0143 75.0066 19.0143C74.8243 19.0143 74.6495 18.9418 74.5205 18.8129L60.7928 5.08517C60.5393 4.83165 60.3969 4.48781 60.3969 4.12928V0.687814C60.3969 0.307945 60.7048 0 61.0847 0C61.2668 0 61.4414 0.0722042 61.5703 0.200782L69.3846 7.99342C70.2368 8.84321 71.691 8.23965 71.691 7.0362V1.46621Z" fill="#2F5BB3"/>
<path d="M78.5466 1.4948C78.5466 0.748203 79.1519 0.142964 79.8985 0.142964H94.0646C94.8112 0.142964 95.4164 0.748202 95.4164 1.4948V2.79413C95.4164 3.54073 94.8112 4.14596 94.0646 4.14596H79.8985C79.1519 4.14596 78.5466 3.54073 78.5466 2.79413V1.4948ZM83.9015 10.9511C83.1549 10.9511 82.5496 11.5563 82.5496 12.3029V13.6594C82.5496 14.406 83.1549 15.0113 83.9015 15.0113H94.0646C94.8112 15.0113 95.4164 15.6165 95.4164 16.3631V17.6624C95.4164 18.409 94.8112 19.0143 94.0646 19.0143H79.8985C79.1519 19.0143 78.5466 18.409 78.5466 17.6624V8.281C78.5466 7.53063 79.1578 6.92384 79.9081 6.9292L82.5496 6.94807H92.3776C93.1242 6.94807 93.7294 7.5533 93.7294 8.2999V9.59923C93.7294 10.3458 93.1242 10.9511 92.3776 10.9511H83.9015Z" fill="#2F5BB3"/>
<path d="M99.948 1.38043C99.948 0.633831 100.553 0.0285942 101.3 0.0285942H102.599C103.346 0.0285942 103.951 0.633832 103.951 1.38043V17.5766C103.951 18.3232 103.346 18.9285 102.599 18.9285H101.3C100.553 18.9285 99.948 18.3232 99.948 17.5766V1.38043Z" fill="#729CF1"/>
<path d="M106.468 17.8134L111.493 8.75955C112.007 7.83257 113.34 7.83156 113.856 8.75777L114.824 10.4963C115.051 10.9037 115.052 11.3993 114.827 11.8075L111.1 18.5568C110.977 18.7857 110.738 18.9285 110.478 18.9285H107.134C106.562 18.9285 106.197 18.3173 106.468 17.8134ZM127.112 17.8134C127.383 18.3173 127.018 18.9285 126.446 18.9285H123.102C122.842 18.9285 122.603 18.7857 122.48 18.5568L116.847 8.4063L116.79 8.29193L114.478 4.11504C114.351 3.88483 114.349 3.60563 114.474 3.37396L116.104 0.400302C116.227 0.15497 116.477 0 116.752 0H116.841C117.105 0 117.344 0.157455 117.448 0.400302L119.106 3.37396L127.112 17.8134Z" fill="#729CF1"/>
</svg>
