<svg width="190" height="59" viewBox="0 0 190 59" fill="none" xmlns="http://www.w3.org/2000/svg">
<path d="M73.1512 27.5771C75.1813 27.5771 77.097 28.6922 78.0978 30.465C78.6125 31.3228 78.8698 32.2949 78.8698 33.2957C78.8698 34.2964 78.6125 35.2686 78.0978 36.155C77.097 37.9277 75.1813 39.0143 73.1512 39.0143H67.4612C64.9451 39.0143 62.8292 37.3273 62.1716 35.0113C62.1619 34.9725 62.1526 34.9336 62.1437 34.8944C61.9788 34.1662 62.6052 33.553 63.3518 33.553H64.5654C65.312 33.553 65.8917 34.2633 66.4646 34.7421C66.5503 34.8137 66.6441 34.8757 66.7443 34.9267C66.8739 34.9925 67.0206 35.0113 67.1659 35.0113H73.1512C74.0948 35.0113 74.8382 34.2392 74.8382 33.2957C74.8382 32.3521 74.0948 31.5801 73.1512 31.5801H67.7186C66.1174 31.5801 64.602 30.8939 63.5154 29.7502C63.2295 29.4356 62.9722 29.0925 62.7434 28.6922C62.2573 27.8344 62 26.8623 62 25.8615C62 24.8608 62.2573 23.8886 62.7434 23.0308C63.7442 21.2295 65.6599 20.143 67.7186 20.143H73.4943C76.0105 20.143 78.1264 21.8299 78.7554 24.146C78.7679 24.186 78.7798 24.2262 78.791 24.2666C78.9904 24.9861 78.3503 25.6042 77.6037 25.6042H76.3902C75.6436 25.6042 75.0635 24.8918 74.4857 24.419C74.3917 24.3421 74.2878 24.2761 74.1756 24.2229C74.0499 24.1632 73.9096 24.146 73.7705 24.146H67.7186C66.775 24.146 66.003 24.918 66.003 25.8615C66.003 26.8051 66.775 27.5771 67.7186 27.5771H73.1512Z" fill="#2F5BB3"/>
<path d="M94.6716 31.9232C94.7937 31.6616 95.0563 31.4943 95.345 31.4943H98.0259C98.5458 31.4943 98.9163 31.9991 98.7604 32.4951C98.1599 34.3822 96.9876 35.9834 95.3864 37.1843C93.728 38.3852 91.7837 39.0143 89.7536 39.0143C87.4662 39.0143 85.2645 38.2137 83.5204 36.6982C81.8334 35.2114 80.6897 33.1813 80.3752 30.9511C80.318 30.4936 80.2894 30.0075 80.2894 29.55C80.2894 29.0925 80.318 28.6636 80.3752 28.2062C80.6897 25.9759 81.8048 23.9172 83.5204 22.4304C85.236 20.915 87.4662 20.0858 89.7536 20.0858C91.8409 20.0858 93.8424 20.7434 95.5008 22.0015C97.102 23.231 98.3029 24.9752 98.8462 26.9195C98.9885 27.3892 98.637 27.863 98.1461 27.863H95.4855C95.1821 27.863 94.9076 27.6835 94.786 27.4056C93.9282 25.4041 91.9553 24.0888 89.7536 24.0888C87.1517 24.0888 84.8928 25.9187 84.4068 28.4635C84.321 28.8352 84.2924 29.1783 84.2924 29.55C84.2924 29.9217 84.321 30.322 84.4068 30.6651C84.9214 33.1813 87.1803 35.0113 89.7536 35.0113C91.8409 35.0113 93.7566 33.8104 94.6716 31.9232Z" fill="#2F5BB3"/>
<path d="M98.8441 37.8991L103.869 28.8453C104.383 27.9183 105.716 27.9173 106.232 28.8435L107.2 30.5821C107.427 30.9895 107.428 31.485 107.203 31.8933L103.476 38.6425C103.353 38.8715 103.114 39.0143 102.854 39.0143H99.5102C98.9378 39.0143 98.5728 38.4031 98.8441 37.8991ZM119.488 37.8991C119.76 38.4031 119.395 39.0143 118.822 39.0143H115.478C115.218 39.0143 114.979 38.8715 114.856 38.6425L109.223 28.4921L109.166 28.3777L106.854 24.2008C106.727 23.9706 106.725 23.6914 106.85 23.4597L108.48 20.4861C108.603 20.2407 108.853 20.0858 109.128 20.0858H109.217C109.481 20.0858 109.72 20.2432 109.824 20.4861L111.482 23.4597L119.488 37.8991Z" fill="#2F5BB3"/>
<path d="M123.749 39.0143C123.002 39.0143 122.397 38.409 122.397 37.6624V31.8987C122.397 30.6943 123.853 30.0912 124.705 30.9428L126.004 32.2421C126.257 32.4956 126.4 32.8395 126.4 33.198V37.6624C126.4 38.409 125.795 39.0143 125.048 39.0143H123.749ZM133.691 21.4662C133.691 20.7196 134.296 20.1144 135.043 20.1144H136.342C137.089 20.1144 137.694 20.7196 137.694 21.4662V38.3268C137.694 38.7065 137.386 39.0143 137.007 39.0143C136.824 39.0143 136.649 38.9418 136.521 38.8129L122.793 25.0852C122.539 24.8317 122.397 24.4878 122.397 24.1293V20.6878C122.397 20.3079 122.705 20 123.085 20C123.267 20 123.441 20.0722 123.57 20.2008L131.385 27.9934C132.237 28.8432 133.691 28.2397 133.691 27.0362V21.4662Z" fill="#2F5BB3"/>
<path d="M140.547 21.4948C140.547 20.7482 141.152 20.143 141.898 20.143H156.065C156.811 20.143 157.416 20.7482 157.416 21.4948V22.7941C157.416 23.5407 156.811 24.146 156.065 24.146H141.898C141.152 24.146 140.547 23.5407 140.547 22.7941V21.4948ZM145.901 30.9511C145.155 30.9511 144.55 31.5563 144.55 32.3029V33.6594C144.55 34.406 145.155 35.0113 145.901 35.0113H156.065C156.811 35.0113 157.416 35.6165 157.416 36.3631V37.6624C157.416 38.409 156.811 39.0143 156.065 39.0143H141.898C141.152 39.0143 140.547 38.409 140.547 37.6624V28.281C140.547 27.5306 141.158 26.9238 141.908 26.9292L144.55 26.9481H154.378C155.124 26.9481 155.729 27.5533 155.729 28.2999V29.5992C155.729 30.3458 155.124 30.9511 154.378 30.9511H145.901Z" fill="#2F5BB3"/>
<path d="M161.948 21.3804C161.948 20.6338 162.553 20.0286 163.3 20.0286H164.599C165.346 20.0286 165.951 20.6338 165.951 21.3804V37.5766C165.951 38.3232 165.346 38.9285 164.599 38.9285H163.3C162.553 38.9285 161.948 38.3232 161.948 37.5766V21.3804Z" fill="#729CF1"/>
<path d="M168.468 37.8134L173.493 28.7596C174.008 27.8326 175.34 27.8316 175.856 28.7578L176.824 30.4963C177.051 30.9037 177.052 31.3993 176.827 31.8075L173.1 38.5568C172.977 38.7857 172.738 38.9285 172.478 38.9285H169.134C168.562 38.9285 168.197 38.3173 168.468 37.8134ZM189.112 37.8134C189.384 38.3173 189.019 38.9285 188.446 38.9285H185.103C184.843 38.9285 184.604 38.7857 184.48 38.5568L178.848 28.4063L178.79 28.2919L176.479 24.115C176.351 23.8848 176.35 23.6056 176.474 23.374L178.104 20.4003C178.227 20.155 178.478 20 178.752 20H178.841C179.105 20 179.344 20.1575 179.448 20.4003L181.106 23.374L189.112 37.8134Z" fill="#729CF1"/>
<path d="M36.9588 9.21875H12.8224C11.3413 9.21875 10.1406 10.2603 10.1406 11.545V44.1132C10.1406 45.3979 11.3413 46.4395 12.8224 46.4395H36.9588C38.4399 46.4395 39.6406 45.3979 39.6406 44.1132V11.545C39.6406 10.2603 38.4399 9.21875 36.9588 9.21875Z" fill="url(#paint0_linear_1339_648)"/>
<path d="M35.7586 11.5234H14.0818C13.5047 11.5234 13.1367 11.864 13.1367 12.4453V42.1758C13.1367 42.757 13.4457 43.0977 14.0227 43.0977H35.8176C36.3946 43.0977 36.6445 42.6264 36.6445 42.0452V12.4453C36.6445 11.864 36.3356 11.5234 35.7586 11.5234Z" fill="white"/>
<path d="M31.1461 6.56836H18.6277C17.794 6.56836 17.4004 6.99334 17.4004 7.73309V10.8779C17.4004 11.6176 17.794 11.9844 18.6277 11.9844H31.1461C31.9798 11.9844 32.4961 11.6176 32.4961 10.8779L32.4347 7.55838C32.4347 6.81863 31.9798 6.56836 31.1461 6.56836Z" fill="url(#paint1_linear_1339_648)"/>
<path d="M21.5488 6.10742C21.5488 4.96186 22.4775 4.0332 23.623 4.0332H26.2734C27.419 4.0332 28.3477 4.96186 28.3477 6.10742C28.3477 7.25298 27.419 8.18164 26.2734 8.18164H23.623C22.4775 8.18164 21.5488 7.25298 21.5488 6.10742Z" fill="url(#paint2_linear_1339_648)"/>
<path d="M14.5195 36.6855C14.5195 35.581 15.415 34.6855 16.5195 34.6855H19.0879C20.1925 34.6855 21.0879 35.581 21.0879 36.6855V38.6777C21.0879 39.7823 20.1925 40.6777 19.0879 40.6777H16.5195C15.415 40.6777 14.5195 39.7823 14.5195 38.6777V36.6855Z" fill="#6FB7F2"/>
<path d="M14.5195 29.541C14.5195 28.4364 15.415 27.541 16.5195 27.541H19.0879C20.1925 27.541 21.0879 28.4364 21.0879 29.541V31.5332C21.0879 32.6378 20.1925 33.5332 19.0879 33.5332H16.5195C15.415 33.5332 14.5195 32.6378 14.5195 31.5332V29.541Z" fill="#77C0F3"/>
<path d="M14.5195 22.3965C14.5195 21.2919 15.415 20.3965 16.5195 20.3965H19.0879C20.1925 20.3965 21.0879 21.2919 21.0879 22.3965V24.3887C21.0879 25.4932 20.1925 26.3887 19.0879 26.3887H16.5195C15.415 26.3887 14.5195 25.4932 14.5195 24.3887V22.3965Z" fill="#74BFF4"/>
<path d="M14.5195 15.4824C14.5195 14.3779 15.415 13.4824 16.5195 13.4824H19.0879C20.1925 13.4824 21.0879 14.3779 21.0879 15.4824V17.4746C21.0879 18.5792 20.1925 19.4746 19.0879 19.4746H16.5195C15.415 19.4746 14.5195 18.5792 14.5195 17.4746V15.4824Z" fill="#76C1F6"/>
<path d="M22.2402 15.4824C22.2402 14.3779 23.1357 13.4824 24.2402 13.4824H26.8086C27.9132 13.4824 28.8086 14.3779 28.8086 15.4824V17.4746C28.8086 18.5792 27.9132 19.4746 26.8086 19.4746H24.2402C23.1357 19.4746 22.2402 18.5792 22.2402 17.4746V15.4824Z" fill="#76C1F6"/>
<path d="M22.2402 22.3965C22.2402 21.2919 23.1357 20.3965 24.2402 20.3965H26.8086C27.9132 20.3965 28.8086 21.2919 28.8086 22.3965V24.3887C28.8086 25.4932 27.9132 26.3887 26.8086 26.3887H24.2402C23.1357 26.3887 22.2402 25.4932 22.2402 24.3887V22.3965Z" fill="#76C1F6"/>
<path d="M22.2402 29.541C22.2402 28.4364 23.1357 27.541 24.2402 27.541H26.8086C27.9132 27.541 28.8086 28.4364 28.8086 29.541V31.5332C28.8086 32.6378 27.9132 33.5332 26.8086 33.5332H24.2402C23.1357 33.5332 22.2402 32.6378 22.2402 31.5332V29.541Z" fill="#6FB7F2"/>
<path d="M22.2402 36.6855C22.2402 35.581 23.1357 34.6855 24.2402 34.6855H26.8086C27.9132 34.6855 28.8086 35.581 28.8086 36.6855V38.6777C28.8086 39.7823 27.9132 40.6777 26.8086 40.6777H24.2402C23.1357 40.6777 22.2402 39.7823 22.2402 38.6777V36.6855Z" fill="#6FB7F2"/>
<rect x="25.4668" y="17.6309" width="1.26758" height="25.4668" fill="white"/>
<path d="M33.3115 17.5474C33.3115 19.6794 31.5574 21.4077 29.3936 21.4077C27.2297 21.4077 25.4756 19.6794 25.4756 17.5474C25.4756 15.4153 27.2297 13.687 29.3936 13.687C31.5574 13.687 33.3115 15.4153 33.3115 17.5474Z" fill="white"/>
<path d="M43.7726 14.75H30.4383C28.3927 14.75 26.7344 16.4033 26.7344 18.4427V43.5534C26.7344 45.5928 28.3927 47.2461 30.4383 47.2461H43.7726C45.8182 47.2461 47.4766 45.5928 47.4766 43.5534V18.4427C47.4766 16.4033 45.8182 14.75 43.7726 14.75Z" fill="#4184E4"/>
<path d="M36.9902 45.8633C37.9449 45.8633 38.7188 45.0894 38.7188 44.1348C38.7188 43.1801 37.9449 42.4062 36.9902 42.4062C36.0356 42.4062 35.2617 43.1801 35.2617 44.1348C35.2617 45.0894 36.0356 45.8633 36.9902 45.8633Z" fill="#1D5DC8"/>
<path d="M44.1892 17.8613H30.0217C29.5426 17.8613 29.1543 18.2541 29.1543 18.7385V40.3767C29.1543 40.8612 29.5426 41.2539 30.0217 41.2539H44.1892C44.6683 41.2539 45.0566 40.8612 45.0566 40.3767V18.7385C45.0566 18.2541 44.6683 17.8613 44.1892 17.8613Z" fill="white"/>
<defs>
<linearGradient id="paint0_linear_1339_648" x1="26.6085" y1="16.5466" x2="33.7704" y2="20.6723" gradientUnits="userSpaceOnUse">
<stop stop-color="#77C0F3"/>
<stop offset="1" stop-color="#5CA2EF"/>
</linearGradient>
<linearGradient id="paint1_linear_1339_648" x1="17.4004" y1="6.62659" x2="52.1434" y2="6.04304" gradientUnits="userSpaceOnUse">
<stop stop-color="#7CC8F6"/>
<stop offset="1" stop-color="#44A2F1"/>
</linearGradient>
<linearGradient id="paint2_linear_1339_648" x1="20.627" y1="7.54785" x2="30.1338" y2="7.375" gradientUnits="userSpaceOnUse">
<stop stop-color="#7CC7F6"/>
<stop offset="1" stop-color="#65B9F4"/>
</linearGradient>
</defs>
</svg>
