<svg width="314" height="344" viewBox="0 0 314 344" fill="none" xmlns="http://www.w3.org/2000/svg">
<rect y="38" width="246" height="293" rx="20" fill="url(#paint0_linear_16_4773)"/>
<rect x="23" y="62" width="200" height="246" rx="4" fill="#FDFDFD"/>
<path d="M83 248C85.2091 248 87 249.791 87 252V294C87 296.209 85.2091 298 83 298H41C38.7909 298 37 296.209 37 294V252C37 249.791 38.7909 248 41 248H83ZM143 248C145.209 248 147 249.791 147 252V294C147 296.209 145.209 298 143 298H101C98.7909 298 97 296.209 97 294V252C97 249.791 98.7909 248 101 248H143ZM83 192C85.2091 192 87 193.791 87 196V238C87 240.209 85.2091 242 83 242H41C38.7909 242 37 240.209 37 238V196C37 193.791 38.7909 192 41 192H83ZM143 192C145.209 192 147 193.791 147 196V238C147 240.209 145.209 242 143 242H101C98.7909 242 97 240.209 97 238V196C97 193.791 98.7909 192 101 192H143ZM83 136C85.2091 136 87 137.791 87 140V182C87 184.209 85.2091 186 83 186H41C38.7909 186 37 184.209 37 182V140C37 137.791 38.7909 136 41 136H83ZM143 136C145.209 136 147 137.791 147 140V182C147 184.209 145.209 186 143 186H101C98.7909 186 97 184.209 97 182V140C97 137.791 98.7909 136 101 136H143ZM83 80C85.2091 80 87 81.7909 87 84V126C87 128.209 85.2091 130 83 130H41C38.7909 130 37 128.209 37 126V84C37 81.7909 38.7909 80 41 80H83ZM143 80C145.209 80 147 81.7909 147 84V126C147 128.209 145.209 130 143 130H101C98.7909 130 97 128.209 97 126V84C97 81.7909 98.7909 80 101 80H143Z" fill="url(#paint1_linear_16_4773)"/>
<path d="M133 98C133 88.0589 141.059 80 151 80H214V303H133V98Z" fill="#FDFDFD"/>
<path d="M145 113C145 99.1929 156.193 88 170 88H289C302.807 88 314 99.1929 314 113V319C314 332.807 302.807 344 289 344H170C156.193 344 145 332.807 145 319V113Z" fill="#3975E5"/>
<rect x="165" y="112" width="128" height="182" rx="12" fill="#FDFDFD"/>
<rect x="97" width="57" height="31" rx="6" fill="#76C0F5"/>
<rect x="62" y="24" width="126" height="41" rx="6" fill="#74BCF6"/>
<circle cx="229" cy="318" r="15" fill="#1C5CC6"/>
<defs>
<linearGradient id="paint0_linear_16_4773" x1="0" y1="38" x2="246" y2="331" gradientUnits="userSpaceOnUse">
<stop stop-color="#7AC3F6"/>
<stop offset="1" stop-color="#3672E4"/>
</linearGradient>
<linearGradient id="paint1_linear_16_4773" x1="37" y1="80" x2="147" y2="298" gradientUnits="userSpaceOnUse">
<stop stop-color="#79C5F7"/>
<stop offset="1" stop-color="#62A6E9"/>
</linearGradient>
</defs>
</svg>
