<svg width="206" height="209" viewBox="0 0 206 209" fill="none" xmlns="http://www.w3.org/2000/svg">
<path d="M57 208.345C39.18 208.345 21.36 208.345 3 208.345C3 190.985 3 173.624 3 155.738C20.82 155.738 38.64 155.738 57 155.738C57 173.098 57 190.458 57 208.345Z" fill="#6FA3DA"/>
<path d="M39 53.5986C26.13 53.5986 13.26 53.5986 -1.49012e-06 53.5986C-1.49012e-06 42.252 -1.49012e-06 30.9054 -1.49012e-06 19.215C12.87 19.215 25.74 19.215 39 19.215C39 30.5616 39 41.9082 39 53.5986Z" fill="#4988CE"/>
<path d="M119 58.3457C99.86 58.3457 80.72 58.3457 61 58.3457C61 39.0916 61 19.8376 61 5.68834e-05C80.14 5.68834e-05 99.28 5.68834e-05 119 5.68834e-05C119 19.2541 119 38.5082 119 58.3457Z" fill="#3071C4"/>
<path d="M185 53.5986C176.42 53.5986 167.84 53.5986 159 53.5986C159 45.5893 159 37.5799 159 29.3278C167.58 29.3278 176.16 29.3278 185 29.3278C185 37.3372 185 45.3465 185 53.5986Z" fill="#3071C4"/>
<path d="M152 157.865C140.45 157.865 128.9 157.865 117 157.865C117 146.818 117 135.77 117 124.388C128.55 124.388 140.1 124.388 152 124.388C152 135.436 152 146.483 152 157.865Z" fill="#4988CE"/>
<path d="M105 102.14C95.1 102.14 85.2 102.14 75 102.14C75 92.7954 75 83.4511 75 73.8237C84.9 73.8237 94.8 73.8237 105 73.8237C105 83.1679 105 92.5122 105 102.14Z" fill="#4988CE"/>
<path d="M101 153.716C92.42 153.716 83.84 153.716 75 153.716C75 145.373 75 137.03 75 128.434C83.58 128.434 92.16 128.434 101 128.434C101 136.777 101 145.12 101 153.716Z" fill="#3071C4"/>
<path d="M65 141.63C53.45 141.63 41.9 141.63 30 141.63C30 130.267 30 118.904 30 107.196C41.55 107.196 53.1 107.196 65 107.196C65 118.559 65 129.922 65 141.63Z" fill="#699FD8"/>
<path d="M200 113.559C182.84 113.559 165.68 113.559 148 113.559C148 97.7766 148 81.9946 148 65.7343C165.16 65.7343 182.32 65.7343 200 65.7343C200 81.5163 200 97.2983 200 113.559Z" fill="#4988CE"/>
<path d="M135 102.329C129.39 102.329 123.78 102.329 118 102.329C118 97.5945 118 92.8599 118 87.9818C123.61 87.9818 129.22 87.9818 135 87.9818C135 92.7164 135 97.451 135 102.329Z" fill="#4988CE"/>
<path d="M39 83.1143C33.39 83.1143 27.78 83.1143 22 83.1143C22 78.3797 22 73.645 22 68.767C27.61 68.767 33.22 68.767 39 68.767C39 73.5016 39 78.2362 39 83.1143Z" fill="#4988CE"/>
<path d="M146.17 34.2822C142.484 34.2822 138.798 34.2822 135 34.2822C135 30.9787 135 27.6751 135 24.2715C138.686 24.2715 142.372 24.2715 146.17 24.2715C146.17 27.575 146.17 30.8786 146.17 34.2822Z" fill="#699FD8"/>
<path d="M205.17 129.343C201.484 129.343 197.797 129.343 193.999 129.343C193.999 126.039 193.999 122.736 193.999 119.332C197.686 119.332 201.372 119.332 205.17 119.332C205.17 122.636 205.17 125.939 205.17 129.343Z" fill="#699FD8"/>
<path d="M47.1704 11.0225C43.4842 11.0225 39.7979 11.0225 35.9999 11.0225C35.9999 7.71891 35.9999 4.41536 35.9999 1.01171C39.6862 1.01171 43.3724 1.01171 47.1704 1.01171C47.1704 4.31526 47.1704 7.6188 47.1704 11.0225Z" fill="#699FD8"/>
</svg>
