<svg width="227" height="193" viewBox="0 0 227 193" fill="none" xmlns="http://www.w3.org/2000/svg">
<path d="M219.001 169.373C208.771 169.373 198.541 169.373 188.001 169.373C188.001 160.535 188.001 151.697 188.001 142.591C198.231 142.591 208.461 142.591 219.001 142.591C219.001 151.429 219.001 160.267 219.001 169.373Z" fill="#6FA3DA"/>
<path d="M219.001 127.308C208.111 127.308 197.221 127.308 186.001 127.308C186.001 114.998 186.001 102.688 186.001 90.0047C196.891 90.0047 207.781 90.0047 219.001 90.0047C219.001 102.315 219.001 114.625 219.001 127.308Z" fill="#2E6EC2"/>
<path d="M227.001 78.3574C216.771 78.3574 206.541 78.3574 196.001 78.3574C196.001 69.5195 196.001 60.6816 196.001 51.5758C206.231 51.5758 216.461 51.5758 227.001 51.5758C227.001 60.4137 227.001 69.2517 227.001 78.3574Z" fill="#6FA3DA"/>
<path d="M172.001 58.3457C152.861 58.3457 133.721 58.3457 114.001 58.3457C114.001 39.0916 114.001 19.8376 114.001 5.68834e-05C133.141 5.68834e-05 152.281 5.68834e-05 172.001 5.68834e-05C172.001 19.2541 172.001 38.5082 172.001 58.3457Z" fill="#3071C4"/>
<path d="M177.001 107.246C165.781 107.246 154.561 107.246 143.001 107.246C143.001 95.883 143.001 84.52 143.001 72.8126C154.221 72.8126 165.441 72.8126 177.001 72.8126C177.001 84.1756 177.001 95.5387 177.001 107.246Z" fill="#3071C4"/>
<path d="M84.001 147.668C66.181 147.668 48.361 147.668 30.001 147.668C30.001 130.308 30.001 112.948 30.001 95.0612C47.821 95.0612 65.641 95.0612 84.001 95.0612C84.001 112.421 84.001 129.782 84.001 147.668Z" fill="#6FA3DA"/>
<path d="M100.001 72.918C88.451 72.918 76.901 72.918 65.001 72.918C65.001 61.8706 65.001 50.8231 65.001 39.441C76.551 39.441 88.101 39.441 100.001 39.441C100.001 50.4884 100.001 61.5358 100.001 72.918Z" fill="#4988CE"/>
<path d="M159.001 192.438C141.841 192.438 124.681 192.438 107.001 192.438C107.001 176.656 107.001 160.874 107.001 144.614C124.161 144.614 141.321 144.614 159.001 144.614C159.001 160.396 159.001 176.178 159.001 192.438Z" fill="#4988CE"/>
<path d="M92.001 169.074C86.391 169.074 80.781 169.074 75.001 169.074C75.001 164.34 75.001 159.605 75.001 154.727C80.611 154.727 86.221 154.727 92.001 154.727C92.001 159.462 92.001 164.196 92.001 169.074Z" fill="#4988CE"/>
<path d="M48.001 85.1377C42.391 85.1377 36.781 85.1377 31.001 85.1377C31.001 80.4031 31.001 75.6685 31.001 70.7904C36.611 70.7904 42.221 70.7904 48.001 70.7904C48.001 75.525 48.001 80.2596 48.001 85.1377Z" fill="#4988CE"/>
<path d="M105.171 89.9023C101.485 89.9023 97.7984 89.9023 94.0004 89.9023C94.0004 86.5988 94.0004 83.2952 94.0004 79.8916C97.6867 79.8916 101.373 79.8916 105.171 79.8916C105.171 83.1951 105.171 86.4987 105.171 89.9023Z" fill="#699FD8"/>
<path d="M11.1709 147.546C7.48464 147.546 3.79838 147.546 0.000415514 147.546C0.000415514 144.242 0.000415514 140.939 0.000415514 137.535C3.68668 137.535 7.37293 137.535 11.1709 137.535C11.1709 140.839 11.1709 144.142 11.1709 147.546Z" fill="#699FD8"/>
<path d="M191.171 23.1582C187.485 23.1582 183.798 23.1582 180 23.1582C180 19.8547 180 16.5511 180 13.1474C183.687 13.1474 187.373 13.1474 191.171 13.1474C191.171 16.451 191.171 19.7545 191.171 23.1582Z" fill="#699FD8"/>
<path d="M172.171 134.398C168.485 134.398 164.798 134.398 161 134.398C161 131.095 161 127.791 161 124.388C164.687 124.388 168.373 124.388 172.171 124.388C172.171 127.691 172.171 130.995 172.171 134.398Z" fill="#699FD8"/>
</svg>
